<svg width="76" height="76" viewBox="0 0 76 76" fill="none" xmlns="http://www.w3.org/2000/svg">
<path fill-rule="evenodd" clip-rule="evenodd" d="M44.9383 43.4876C44.9223 43.4833 44.9064 43.4789 44.8904 43.4747C44.7695 43.7168 44.6658 43.9699 44.5226 44.1979C44.3797 44.4252 44.2474 44.6534 44.1342 44.9147C44.2758 44.8832 44.37 44.8362 44.423 44.7229C44.5034 44.5507 44.6336 44.4024 44.669 44.2084C44.8014 44.1294 44.7315 43.9663 44.8203 43.8556C44.8956 43.7618 44.9016 43.6124 44.9383 43.4876ZM47.4938 58.2852C47.4749 58.1636 47.4508 58.1032 47.4596 58.048C47.4857 57.8821 47.5156 57.7205 47.5162 57.5482C47.5168 57.3756 47.5112 57.2019 47.5167 57.0309C47.5249 56.7746 47.459 56.5122 47.5503 56.2591C47.5521 56.2544 47.5293 56.2408 47.5118 56.2264C47.402 56.4876 47.4366 56.7623 47.4077 57.0286C47.3883 57.2052 47.3747 57.3814 47.3813 57.5597C47.383 57.6063 47.337 57.6546 47.3057 57.7164C47.3194 57.7367 47.3531 57.7737 47.3694 57.8174C47.3753 57.8331 47.3198 57.8711 47.3255 57.8876C47.3409 57.932 47.3901 57.9686 47.3949 58.0118C47.3988 58.0464 47.3573 58.0862 47.3272 58.1395C47.3582 58.1666 47.4019 58.2047 47.4938 58.2852ZM31.0145 57.4242C31.026 57.5971 31.0148 57.7604 31.0531 57.9115C31.0923 58.0671 31.1086 58.2357 31.2191 58.3502C31.1748 58.4106 31.1447 58.4512 31.0829 58.5355C31.2505 58.4604 31.3391 58.4897 31.3952 58.609C31.4193 58.6605 31.4804 58.7096 31.477 58.7563C31.4669 58.8971 31.5652 58.8411 31.646 58.8685C31.4935 58.6267 31.4559 58.366 31.3906 58.1184C31.3256 57.8716 31.1908 57.6648 31.0855 57.441C31.0806 57.4305 31.0501 57.432 31.0145 57.4242ZM42.7095 49.188C42.773 49.0635 42.7451 48.9024 42.8662 48.8056C42.8981 48.5615 43.1058 48.3876 43.1319 48.1411C43.2449 48.0728 43.2023 47.9289 43.2703 47.8457C43.4118 47.6723 43.4338 47.4425 43.5609 47.2634C43.5737 47.2454 43.5485 47.2005 43.5411 47.168C43.5128 47.1821 43.4773 47.1896 43.4574 47.2113C43.3049 47.3784 43.2099 47.5834 43.0894 47.7718C42.9822 47.9392 42.8697 48.1094 42.8087 48.2919C42.7148 48.5724 42.673 48.8703 42.6079 49.1657L42.7095 49.188ZM51.818 42.5801C51.847 42.4483 51.853 42.3048 51.9116 42.1876C51.9706 42.0697 51.8265 41.922 51.9819 41.8334C51.8899 41.7084 51.998 41.5944 52.0023 41.4746C52.0065 41.355 52.0107 41.2351 52.0219 41.1159C52.0395 40.9296 52.0995 40.7385 52.0727 40.5597C52.0511 40.4164 52.1252 40.2948 52.1028 40.1721C52.0759 40.0232 52.1134 39.892 52.1425 39.7554C52.1603 39.6721 52.1469 39.5921 52.144 39.5099C52.1403 39.4076 52.1074 39.3183 52.0865 39.2236C52.2522 39.1883 52.0193 38.9909 52.1939 38.9593C52.1847 38.9162 52.181 38.871 52.1647 38.8308C52.1485 38.7912 52.0978 38.7548 52.1751 38.7268C52.1599 38.688 52.1448 38.6493 52.1307 38.6132C52.0458 38.6445 51.9684 38.673 51.8806 38.7054C51.9365 38.7737 51.9735 38.8494 52.0343 38.8861C52.1254 38.9409 52.047 38.9466 52.0224 38.9711C52.1048 39.0514 52.0027 39.106 51.9975 39.1723C51.9925 39.2365 51.9589 39.2924 51.96 39.3542C51.9616 39.4566 51.9054 39.5794 52.0503 39.6421C52.0058 39.6522 51.9645 39.6617 51.9201 39.6718C52.0096 39.7745 51.9333 39.8414 51.8745 39.9172C51.928 39.9378 51.9785 39.9572 52.0444 39.9824C52.0129 40.0408 51.9852 40.0866 51.9631 40.135C51.9497 40.1648 51.9305 40.2027 51.9383 40.2299C51.9907 40.4145 52.0093 40.6241 51.9778 40.7698C51.9593 40.8553 51.9095 40.9478 51.9275 41.0243C51.9723 41.214 51.9147 41.3738 51.8375 41.5361C51.8291 41.5537 51.8235 41.587 51.8329 41.5963C51.909 41.6705 51.8813 41.7541 51.8622 41.8385C51.8257 41.9994 51.7885 42.1603 51.7569 42.3222C51.748 42.3684 51.778 42.4408 51.7545 42.4623C51.6713 42.5388 51.7933 42.5482 51.818 42.5801ZM36.8416 40.0255C36.8283 40.0242 36.8151 40.0229 36.8018 40.0215C36.7857 40.0945 36.7767 40.1703 36.7515 40.2401C36.7257 40.3115 36.6841 40.3772 36.6311 40.4815C36.6955 40.4465 36.7187 40.4339 36.7651 40.4088C36.7581 40.5735 36.7435 40.7264 36.7469 40.879C36.7526 41.1244 36.7626 41.3694 36.7504 41.6151C36.7439 41.7437 36.7748 41.8744 36.7281 42.0008C36.8297 42.1184 36.6942 42.2446 36.7489 42.3818C36.7951 42.4974 36.7325 42.6537 36.7309 42.7921C36.729 42.9414 36.7437 43.0911 36.691 43.2355C36.7678 43.3377 36.6566 43.4535 36.6928 43.5329C36.7511 43.661 36.6708 43.7566 36.6721 43.8666C36.6725 43.9113 36.6819 43.9558 36.685 44.0006C36.6914 44.0905 36.7145 44.184 36.6981 44.2698C36.6615 44.4629 36.7085 44.6532 36.7002 44.845C36.6968 44.9232 36.7543 45.004 36.7977 45.1205C36.8215 45.0523 36.8422 45.0244 36.8375 45.0013C36.7928 44.7768 36.8035 44.5438 36.8215 44.3251C36.8507 43.9663 36.7697 43.6036 36.8669 43.2496C36.7824 43.1098 36.892 42.9659 36.8528 42.8147C36.8178 42.6793 36.9006 42.5148 36.8712 42.376C36.8438 42.2468 36.8982 42.1368 36.8858 42.0183C36.8367 41.5481 36.8689 41.0761 36.8527 40.6052C36.8462 40.4121 36.8452 40.2187 36.8416 40.0255ZM44.7231 39.1068C44.5776 39.085 44.5563 39.1719 44.5475 39.2717C44.5381 39.3771 44.4854 39.5908 44.4304 39.6601C44.3961 39.7033 44.3792 39.7286 44.4069 39.7804C44.4843 39.9266 44.334 39.8614 44.2897 39.9023C44.3245 39.9291 44.3586 39.9552 44.4018 39.9883C44.3185 40.1082 44.2251 40.2167 44.1716 40.3584C44.1356 40.454 44.1908 40.551 44.1283 40.6317C44.1189 40.6438 44.1025 40.6505 44.0911 40.6586C44.0735 40.6364 44.0579 40.6166 44.0363 40.5892C43.9386 40.7015 44.0885 40.7036 44.0945 40.7317L44.0363 40.996C43.991 41.001 43.9598 41.0043 43.9304 41.0076C43.9645 41.0784 43.9922 41.1361 44.0252 41.205C43.9583 41.2372 43.9064 41.2622 43.863 41.2831C43.9222 41.4336 43.8785 41.5539 43.8157 41.6724C43.806 41.6903 43.7922 41.7256 43.7973 41.7291C43.9175 41.8146 43.8082 41.9411 43.8474 42.0622C44.0403 41.889 43.9867 41.6521 44.0866 41.4308C44.1047 41.4232 44.1559 41.4014 44.2016 41.382C44.169 41.2127 44.1562 41.2021 44.2134 41.1293C44.2779 41.0473 44.203 40.9614 44.2503 40.8813C44.301 40.7951 44.336 40.6992 44.371 40.605C44.3784 40.5851 44.3527 40.5547 44.349 40.5282C44.3455 40.5022 44.3418 40.4699 44.3536 40.4494C44.4033 40.3642 44.4589 40.2824 44.5122 40.1994C44.4313 40.0764 44.5491 40.0047 44.5835 39.9105C44.5943 39.8808 44.5745 39.8405 44.5708 39.8047C44.5681 39.7779 44.5601 39.7305 44.5693 39.7266C44.6711 39.6832 44.6256 39.5524 44.6833 39.5117C44.7877 39.4379 44.7119 39.3339 44.7453 39.2774C44.8822 39.0445 44.8661 38.7768 44.9494 38.5344C44.9747 38.4606 45.005 38.3886 45.0353 38.3098C45.0142 38.3062 44.9784 38.2887 44.9641 38.2996C44.8874 38.3571 44.9487 38.4956 44.8313 38.5373C44.8268 38.5388 44.8521 38.6036 44.8501 38.6381C44.8485 38.6701 44.8378 38.7191 44.8161 38.7296C44.644 38.8125 44.6829 38.954 44.7231 39.1068ZM45.3241 61.4978C45.6108 61.3156 45.8656 61.1613 46.0654 60.9293C46.344 60.6058 46.543 60.244 46.6482 59.8296C46.6648 59.7642 46.7361 59.695 46.7224 59.6436C46.696 59.5442 46.7087 59.4821 46.7932 59.4285C46.8037 59.4217 46.8098 59.3842 46.8018 59.3753C46.7274 59.2922 46.7791 59.2052 46.8039 59.1301C46.8766 58.9111 46.8306 58.6853 46.8638 58.4641C46.8181 58.5351 46.7649 58.6052 46.753 58.6818C46.7415 58.7549 46.6958 58.807 46.6788 58.8728C46.6573 58.9572 46.6432 59.0435 46.6213 59.1278C46.6023 59.2003 46.5913 59.2812 46.5504 59.3399C46.5088 59.3997 46.5269 59.4681 46.4813 59.5319C46.4019 59.6428 46.4496 59.8039 46.3426 59.927C46.2513 60.0322 46.32 60.2416 46.1281 60.3C46.1669 60.3481 46.1739 60.4011 46.15 60.4573C46.1123 60.5455 45.7536 60.9031 45.645 60.9488C45.5636 60.9832 45.5446 61.1097 45.4297 61.0887C45.4086 61.1613 45.3864 61.2334 45.3667 61.3064C45.3543 61.3524 45.3457 61.3996 45.3241 61.4978ZM32.5362 46.4331C32.5106 46.5248 32.4771 46.5803 32.4846 46.6296C32.5115 46.8066 32.5509 46.9819 32.5887 47.1572C32.5983 47.2013 32.6267 47.2416 32.6339 47.2858C32.6528 47.4008 32.6168 47.5285 32.6957 47.6289C32.7685 47.7215 32.6069 47.8818 32.7905 47.9361C32.7866 48.2004 32.9011 48.4479 32.9108 48.7055C32.9169 48.866 33.0115 49.0021 32.9967 49.1551C32.9716 49.4125 33.1465 49.6467 33.0748 49.9076C33.0714 49.9201 33.0986 49.9384 33.1036 49.9563C33.1395 50.0864 33.2098 50.2203 33.1982 50.3465C33.1844 50.4987 33.3014 50.6296 33.2406 50.7795C33.239 50.7834 33.2623 50.7974 33.2737 50.8066C33.3158 50.7475 33.3563 50.6906 33.3998 50.6297C33.3575 50.6027 33.3274 50.5834 33.2943 50.5622C33.3067 50.4796 33.3288 50.3959 33.329 50.312C33.3292 50.2274 33.2676 50.1123 33.304 50.065C33.3694 49.9798 33.2735 49.917 33.3144 49.8352C33.3412 49.7815 33.3019 49.6647 33.2538 49.6098C33.1719 49.5164 33.3181 49.4182 33.2626 49.3901C33.1176 49.317 33.2614 49.238 33.2366 49.1677C33.2097 49.0913 33.1874 49.0129 33.1684 48.9342C33.1474 48.847 33.1328 48.7584 33.1143 48.6707C33.0975 48.5917 33.0745 48.5137 33.0625 48.4342C33.049 48.3454 33.0503 48.2542 33.0347 48.1659C33.0207 48.0865 32.9928 48.0094 32.9706 47.9314C32.9483 47.8535 32.9237 47.7761 32.9032 47.6976C32.8806 47.6107 32.8588 47.5234 32.842 47.4354C32.8268 47.3562 32.8271 47.2733 32.8056 47.1962C32.7833 47.1172 32.7383 47.0448 32.712 46.9667C32.6833 46.8816 32.6682 46.792 32.6408 46.7065C32.6157 46.6278 32.5821 46.5519 32.5362 46.4331ZM27.4152 50.4724C27.4196 50.2914 27.3994 50.176 27.4305 50.0767C27.4695 49.9526 27.4608 49.8287 27.4371 49.7176C27.3989 49.5384 27.3974 49.3593 27.3844 49.1803C27.3634 48.8919 27.351 48.603 27.3349 48.3143C27.3209 48.06 27.2532 47.8064 27.3241 47.551C27.2596 47.3774 27.3794 47.1892 27.2695 47.0111C27.2288 46.9452 27.273 46.8315 27.2595 46.7424C27.2522 46.694 27.4108 46.6906 27.2881 46.636C27.1678 46.5825 27.328 46.5685 27.2956 46.5306C27.1829 46.3983 27.1973 46.2364 27.2073 46.0826C27.2196 45.8905 27.1595 45.7072 27.1626 45.5133C27.1648 45.3588 27.1777 45.1908 27.1256 45.0296C27.0935 44.9304 27.1041 44.8118 27.1175 44.7046C27.1554 44.4031 27.1163 44.1021 27.1094 43.8022C27.1018 43.4739 27.1245 43.1466 27.1125 42.8189C27.1857 42.7509 27.0481 42.6393 27.1618 42.5796C27.1423 42.4929 27.1142 42.4069 27.1055 42.3191C27.0965 42.2279 27.1407 42.1457 27.128 42.0421C27.0946 41.7731 27.1083 41.4983 27.1056 41.2256C27.1037 41.0434 27.1123 40.8608 27.1046 40.6789C27.096 40.481 27.044 40.2805 27.0642 40.0868C27.1007 39.7372 27.0856 39.3855 27.1197 39.0394C27.1509 38.7206 27.157 38.3938 27.2572 38.0813C27.3134 37.9064 27.3426 37.7226 27.3776 37.5415C27.3915 37.4705 27.3961 37.3997 27.3904 37.3224C27.3806 37.1856 27.419 37.0353 27.4737 36.9062C27.5668 36.6865 27.6859 36.2425 27.6895 35.9801C27.65 36.0295 27.581 36.0761 27.5764 36.1282C27.556 36.361 27.4252 36.5545 27.3656 36.7734C27.1861 37.4338 27.1443 38.1192 26.9867 38.7829C26.9779 38.8201 26.9616 38.8601 26.9675 38.8956C27.0146 39.18 26.9538 39.4621 26.9513 39.7453C26.9509 39.802 26.9303 39.8532 26.9736 39.9067C27.0272 39.9731 26.8434 39.9864 26.9283 40.0584C27.0495 40.161 26.8933 40.2976 26.9811 40.4096C27.0011 40.4351 26.9385 40.5239 26.9168 40.5845C26.9107 40.6017 26.9073 40.6261 26.9149 40.6407C26.9723 40.7496 26.9733 40.749 26.8909 40.8457C26.9187 40.9099 27.0211 40.9682 26.9066 41.0436C26.963 41.1701 26.8616 41.324 26.976 41.4427C26.9897 41.4569 26.9862 41.516 26.9785 41.5188C26.8926 41.5484 26.9429 41.5961 26.9498 41.6465C26.9584 41.7092 26.9296 41.7779 26.9417 41.8393C26.9832 42.0485 27.0085 42.2581 26.9484 42.4653C26.9251 42.5455 26.9468 42.6113 26.9636 42.6827C26.9805 42.7542 27.0139 42.8232 26.9762 42.8996C26.9353 42.9825 27.0114 43.0929 26.9169 43.165C27.0059 43.3115 26.9312 43.4747 26.9598 43.6219C27.0263 43.9651 26.9066 44.3134 27.0073 44.6521C26.9613 44.8342 27.0071 45.0185 26.9964 45.1983C26.9863 45.3672 27.0469 45.5386 26.9716 45.7105C26.94 45.7826 26.9664 45.8918 26.994 45.9751C27.0247 46.067 26.9437 46.1482 27.0058 46.2507C27.0501 46.3237 26.971 46.4862 27.0206 46.5381C27.1212 46.6429 26.9256 46.6983 27.011 46.7746C26.9934 47.0761 27.1543 47.3528 27.1332 47.6549C27.2463 47.7441 27.178 47.8655 27.1901 47.9728C27.2033 48.0895 27.2435 48.2033 27.2152 48.3242C27.2046 48.3693 27.2201 48.42 27.2113 48.4657C27.2016 48.5172 27.162 48.5666 27.1638 48.6158C27.167 48.7055 27.2945 48.7907 27.1699 48.8851C27.1998 48.9747 27.2355 49.0631 27.2578 49.1547C27.2747 49.224 27.2555 49.3071 27.2857 49.367C27.3491 49.4921 27.2403 49.6145 27.2867 49.7222C27.3436 49.8544 27.2178 49.9608 27.2816 50.077C27.3756 50.1679 27.3176 50.3108 27.4152 50.4724ZM29.5166 59.569C29.4588 59.4991 29.3227 59.5531 29.3592 59.4144C29.3621 59.4032 29.2589 59.3768 29.2226 59.3401C29.1074 59.2239 28.9863 59.118 28.8464 59.0313C28.8015 59.0033 28.7691 58.9476 28.743 58.8983C28.6267 58.6789 28.5039 58.4644 28.3097 58.3026C28.2825 58.28 28.3774 58.1534 28.2404 58.2237C28.2223 58.233 28.1767 58.1755 28.1391 58.164C28.0355 58.1322 27.9581 58.0692 27.9099 57.9757C27.8857 57.929 27.8759 57.8727 27.8692 57.8196C27.8537 57.6946 27.858 57.5654 27.8291 57.4439C27.7411 57.0753 27.718 56.6977 27.6613 56.3249C27.641 56.1917 27.6374 56.0558 27.6211 55.9218C27.6049 55.7881 27.5687 55.6556 27.5655 55.5219C27.5608 55.3221 27.526 55.1286 27.492 54.9328C27.4597 54.7471 27.4537 54.5569 27.434 54.3688C27.3937 53.9841 27.3712 53.596 27.3031 53.2161C27.2653 53.0057 27.3187 52.8103 27.3163 52.6079C27.3161 52.5957 27.3315 52.5834 27.3398 52.5712C27.1828 52.5491 27.2661 52.4158 27.2529 52.3451C27.1994 52.0631 27.1822 51.7748 27.1387 51.4903C27.1258 51.4056 27.1285 51.4052 27.214 51.3026C27.1805 51.2739 27.1156 51.2414 27.1186 51.2172C27.1481 50.9701 27.0216 50.7289 27.0939 50.4804C27.1022 50.4516 27.0734 50.4126 27.0633 50.3776C27.051 50.3344 27.0206 50.2846 27.0318 50.2481C27.1122 49.9878 26.9892 49.7427 26.982 49.4893C26.9776 49.3369 27.0066 49.183 26.9446 49.0298C26.9234 48.9771 26.9793 48.893 27.0132 48.7793C26.9085 48.6544 26.8766 48.4637 26.9292 48.259C26.934 48.2401 26.9463 48.2176 26.9406 48.2025C26.8103 47.8647 26.9343 47.4971 26.8197 47.1565C26.811 47.1304 26.8626 47.084 26.89 47.0411C26.7695 46.9079 26.7616 46.7376 26.7631 46.5554C26.7647 46.3487 26.7401 46.1412 26.7177 45.9351C26.6874 45.656 26.6621 45.3771 26.6692 45.0957C26.6714 45.0062 26.6514 44.9165 26.6475 44.8265C26.6441 44.7506 26.686 44.6691 26.6453 44.5994C26.5719 44.4733 26.722 44.3404 26.6251 44.2194C26.6764 44.0631 26.5877 43.9102 26.6106 43.758C26.6343 43.6005 26.5863 43.4419 26.6067 43.2958C26.6408 43.0544 26.6073 42.8161 26.6171 42.5773C26.6259 42.3636 26.6695 42.1409 26.6028 41.9259C26.6649 41.5612 26.5626 41.1988 26.5901 40.833C26.6029 40.6623 26.5752 40.4884 26.5778 40.3146C26.5791 40.2243 26.574 40.1322 26.5902 40.0412C26.5953 40.0125 26.6173 39.976 26.6066 39.957C26.5153 39.7938 26.5545 39.6303 26.596 39.4657C26.5175 39.3853 26.5889 39.3023 26.5908 39.2204C26.5928 39.1387 26.572 39.0535 26.5887 38.9758C26.6831 38.5363 26.7048 38.0861 26.8109 37.6466C26.8998 37.278 26.8815 36.8826 27.0122 36.5229C27.1591 36.1179 27.2428 35.686 27.5056 35.3256C27.6295 35.1559 27.7509 34.9928 27.9116 34.8516C28.0638 34.7182 28.2279 34.6086 28.3967 34.5035C28.5794 34.3897 28.7792 34.3345 28.9988 34.3529C29.0877 34.3603 29.1795 34.3483 29.2684 34.3342C29.4147 34.311 29.5594 34.3215 29.7055 34.3218C29.8985 34.3222 30.0784 34.3655 30.264 34.3932C30.4817 34.4256 30.6459 34.574 30.8445 34.6472C30.8691 34.6562 30.8711 34.7269 30.8761 34.7437C30.9342 34.7522 30.9924 34.7442 31.0262 34.769C31.1061 34.8276 31.1756 34.9007 31.2471 34.9701C31.306 35.0276 31.3708 35.082 31.4165 35.1491C31.4669 35.2233 31.4883 35.3179 31.5411 35.3897C31.5881 35.4537 31.6788 35.488 31.7179 35.5543C31.7818 35.6626 31.7671 35.804 31.8536 35.9101C31.8858 35.9494 31.8783 36.0199 31.9086 36.0617C31.9931 36.1782 32.008 36.3198 32.0626 36.4435C32.1125 36.5559 32.0545 36.6815 32.1567 36.7899C32.2369 36.875 32.2495 37.0214 32.3005 37.1368C32.3535 37.2565 32.4335 37.3665 32.4718 37.4901C32.564 37.7884 32.7521 38.0484 32.8112 38.3592C32.8179 38.3945 32.8287 38.4462 32.8532 38.4583C33.0289 38.5442 33.0103 38.7476 33.1145 38.8749C33.0798 38.9611 33.1407 38.9679 33.1995 38.983C33.2221 38.9889 33.2532 39.0119 33.2571 39.0316C33.2911 39.2071 33.414 39.3193 33.5237 39.4476C33.6064 39.5443 33.6419 39.68 33.7054 39.7945C33.7572 39.8878 33.8089 39.9848 33.8799 40.0626C33.9474 40.1366 33.9113 40.27 34.0312 40.3067C33.9714 40.4537 34.149 40.497 34.1631 40.6065C34.1788 40.7271 34.3147 40.7654 34.3253 40.9025C34.3334 41.0049 34.4401 41.0998 34.5029 41.198C34.5709 41.3044 34.6389 41.4109 34.7084 41.5196C34.7319 41.5063 34.7555 41.493 34.779 41.4799C34.7677 41.5262 34.8973 41.5385 34.808 41.6136C34.7851 41.6328 34.7897 41.7184 34.8128 41.7523C34.8994 41.8798 34.9346 42.0437 35.0601 42.1406C35.1493 42.2095 35.1406 42.3049 35.1769 42.3888C35.2443 42.5447 35.3621 42.679 35.4607 42.8211C35.4698 42.8343 35.5057 42.8384 35.5058 42.847C35.5091 43.1742 35.8262 43.3205 35.9314 43.5876C35.9817 43.7151 36.0264 43.8449 36.0748 43.9768C36.1546 43.9043 36.2116 43.9289 36.2571 44.0082C36.2693 43.9926 36.2892 43.9791 36.2903 43.9643C36.2992 43.8447 36.3441 43.708 36.3014 43.6095C36.2421 43.4722 36.3377 43.3579 36.2977 43.2238C36.2604 43.0989 36.2992 42.9509 36.3067 42.8131C36.3137 42.6839 36.3437 42.5523 36.328 42.4261C36.2885 42.1086 36.363 41.7916 36.3099 41.4725C36.2844 41.3215 36.3353 41.1586 36.3462 41.0007C36.3524 40.9099 36.3717 40.8093 36.3416 40.7296C36.3071 40.6388 36.3601 40.5506 36.3337 40.4855C36.3002 40.4027 36.3265 40.3389 36.3283 40.2654C36.3332 40.0742 36.3384 39.8821 36.3264 39.6915C36.3056 39.364 36.2705 39.0374 36.3147 38.7093L36.2758 38.4607C36.1926 38.322 36.2687 38.1728 36.2512 38.0279C36.2358 37.9003 36.1696 37.7562 36.2797 37.6319C36.2918 37.6182 36.2986 37.5906 36.2941 37.573C36.2196 37.2802 36.1827 36.8483 36.2147 36.5992C36.2164 36.586 36.2383 36.5674 36.2351 36.5628C36.119 36.4019 36.2555 36.216 36.1837 36.0516C36.2707 35.7606 36.1682 35.4536 36.2583 35.1623C36.2682 35.1302 36.256 35.0908 36.2515 35.0549C36.2324 34.8981 36.2102 34.742 36.2666 34.587C36.2957 34.5064 36.2883 34.4266 36.2659 34.341C36.2454 34.2632 36.313 34.1892 36.2804 34.0915C36.2373 33.9625 36.3077 33.8245 36.299 33.6804C36.2816 33.3957 36.3287 33.107 36.3512 32.8203C36.3702 32.5767 36.369 32.3288 36.3625 32.0823C36.3584 31.927 36.3934 31.7707 36.3865 31.6125C36.3795 31.449 36.4175 31.2849 36.381 31.1209C36.3752 31.095 36.3872 31.0648 36.3927 31.0369C36.4183 30.9089 36.4422 30.7855 36.4257 30.6486C36.4108 30.5245 36.5069 30.3959 36.4438 30.262C36.5023 29.9964 36.5621 29.7309 36.6189 29.4649C36.6619 29.2635 36.7281 29.0792 36.84 28.8975C36.9423 28.731 37.0104 28.5362 37.0988 28.3555C37.2304 28.0872 37.3688 27.8231 37.5459 27.5834C37.6181 27.4857 37.6501 27.3674 37.7197 27.2781C37.9095 27.0341 38.1424 26.8475 38.4746 26.8291C38.5967 26.8224 38.7139 26.8166 38.8342 26.849C39.003 26.8942 39.1739 26.9354 39.3464 26.9614C39.5737 26.9957 39.7756 27.1075 39.948 27.2305C40.3854 27.5425 40.7857 27.9027 40.9734 28.4348C41.1159 28.4891 41.0614 28.6364 41.1136 28.7339C41.1657 28.8315 41.2057 28.9357 41.2499 29.0375C41.2846 29.1174 41.2488 29.1831 41.1994 29.25C41.2886 29.3057 41.3208 29.3905 41.362 29.4849C41.4274 29.6349 41.3568 29.7893 41.4341 29.9425C41.4982 30.07 41.4751 30.2426 41.5355 30.3861C41.4292 30.4913 41.628 30.5904 41.5417 30.6952C41.6404 30.8015 41.4827 30.9381 41.5572 31.0153C41.6379 31.0991 41.6666 31.2003 41.7026 31.2924C41.764 31.4488 41.7218 31.6374 41.835 31.7839C41.7859 31.806 41.7629 31.8302 41.8018 31.8872C41.8078 31.896 41.7337 31.9483 41.7864 32.0069C41.8828 32.1142 41.9262 32.2465 41.9351 32.3896C41.9432 32.5245 42.0037 32.6475 41.9869 32.7942C41.9767 32.8834 41.9491 33.008 41.9986 33.0864C42.0548 33.1753 42.0346 33.2656 42.06 33.3522C42.0881 33.4483 42.1252 33.5436 42.0884 33.6494C42.079 33.6765 42.1008 33.7238 42.1225 33.7501C42.1651 33.8015 42.1621 33.8517 42.1481 33.9112C42.1301 33.9871 42.0735 34.0767 42.2042 34.1201C42.2151 34.1238 42.1904 34.2084 42.1982 34.2526C42.2357 34.4651 42.2951 34.6742 42.2891 34.8929C42.2886 34.9105 42.2885 34.9326 42.2981 34.9455C42.3935 35.0751 42.3732 35.2212 42.3837 35.3695C42.3901 35.4575 42.3541 35.5748 42.4539 35.66C42.518 35.7149 42.4301 35.7502 42.3938 35.7861C42.5395 35.8946 42.3865 36.0868 42.5105 36.2051C42.5288 36.2226 42.5142 36.2754 42.5131 36.3118C42.5122 36.3487 42.4925 36.4006 42.5099 36.4197C42.5685 36.4841 42.5423 36.5471 42.5409 36.6185C42.5394 36.6807 42.6364 36.7707 42.6166 36.8019C42.5663 36.881 42.6312 36.9317 42.6274 36.9939C42.623 37.0678 42.6177 37.1416 42.6128 37.2154C42.6116 37.2339 42.6023 37.257 42.61 37.2702C42.7187 37.4563 42.645 37.6897 42.7953 37.8738C42.7061 37.9074 42.6412 37.9318 42.5723 37.9577C42.581 37.9777 42.5833 37.9965 42.5938 38.0046C42.6505 38.0485 42.7137 38.0852 42.7657 38.1339C42.7897 38.1562 42.8138 38.2206 42.8033 38.2312C42.6818 38.3517 42.7935 38.3927 42.8808 38.449L42.826 38.6977C42.9282 38.7299 42.9606 38.8108 42.9002 38.8689C42.8062 38.9594 42.8548 39.0442 42.9119 39.0836C43.0021 39.1459 43.0133 39.2085 42.9911 39.3009C42.9831 39.3343 42.9798 39.3864 42.9989 39.4063C43.1026 39.5145 43.0743 39.6466 43.094 39.7744C43.1058 39.851 43.0574 39.9386 43.1336 40.0165C43.1876 40.0718 43.2021 40.1652 43.2352 40.2413C43.2723 40.326 43.3045 40.4137 43.3499 40.4937C43.3899 40.5641 43.3548 40.5907 43.3078 40.6334C43.2911 40.6485 43.3278 40.7134 43.3238 40.754C43.3173 40.8195 43.2974 40.8839 43.2815 40.9561C43.3449 40.9465 43.3923 40.9394 43.4603 40.9292C43.4232 41.0059 43.3314 41.0474 43.4081 41.1283C43.4409 41.1629 43.4976 41.2162 43.4014 41.2516C43.4189 41.2675 43.4378 41.2982 43.4534 41.2965C43.5444 41.2873 43.6067 41.2132 43.6001 41.1217C43.5983 41.0959 43.5693 41.0731 43.5617 41.0465C43.5572 41.0313 43.5708 41.0108 43.5779 40.9877C43.6116 40.9833 43.6471 40.9786 43.6902 40.973C43.6787 40.9408 43.6508 40.889 43.6592 40.8822C43.7348 40.8212 43.6714 40.7044 43.7081 40.6773C43.8038 40.6066 43.7923 40.5087 43.8148 40.4209C43.8406 40.3205 43.8734 40.2296 43.9332 40.1414C43.9761 40.0784 43.9925 39.9964 43.9998 39.9077C44.0116 39.764 44.0127 39.5989 44.1421 39.4877C44.0876 39.3728 44.1917 39.293 44.2128 39.1945C44.2419 39.059 44.2255 38.9085 44.3369 38.7909C44.4263 38.6963 44.3575 38.5216 44.4921 38.4401C44.5093 38.2683 44.6128 38.1228 44.6499 37.9623C44.72 37.6583 44.8546 37.3788 44.9784 37.102C45.1202 36.7851 45.2909 36.4762 45.4957 36.1851C45.7735 35.7907 46.0695 35.4147 46.4282 35.0979C46.6595 34.8937 46.835 34.6046 47.1718 34.5346C47.1905 34.5307 47.1985 34.4884 47.2176 34.4703C47.3784 34.3166 47.5806 34.2375 47.792 34.2041C47.865 34.1925 47.9318 34.1877 48.0036 34.1582C48.0845 34.125 48.172 34.0972 48.2706 34.1182C48.3579 34.1367 48.4522 34.1206 48.5433 34.1231C48.6346 34.1256 48.7247 34.2045 48.8182 34.1247C48.8272 34.1171 48.8547 34.133 48.874 34.1355C49.0979 34.1653 49.3215 34.1978 49.5461 34.2224C49.6362 34.2323 49.7327 34.2068 49.8185 34.2284C49.9619 34.2647 50.097 34.333 50.2395 34.3746C50.379 34.4152 50.5287 34.4249 50.6644 34.4746C50.8079 34.5271 50.9512 34.5954 51.0743 34.6848C51.2061 34.7803 51.3771 34.8182 51.4795 34.9501C51.5763 35.0748 51.7328 35.1446 51.8119 35.2679C51.8919 35.3929 52.0802 35.4726 52.0284 35.672C52.0242 35.6884 52.048 35.7188 52.0662 35.7331C52.2519 35.8783 52.2573 36.1014 52.2999 36.3021C52.324 36.4152 52.3105 36.5449 52.2807 36.6584C52.2534 36.7627 52.3869 36.7292 52.374 36.8037C52.3643 36.8597 52.3443 36.9176 52.351 36.9719C52.3698 37.1272 52.3862 37.2809 52.3546 37.4364C52.3493 37.4625 52.3469 37.4937 52.3562 37.5176C52.4357 37.7241 52.3759 37.9346 52.3772 38.1431C52.3776 38.2343 52.4118 38.3508 52.3684 38.4106C52.3061 38.4964 52.329 38.5769 52.3285 38.6542C52.3265 38.8999 52.2572 39.1442 52.3244 39.3931C52.3449 39.4685 52.2762 39.5715 52.303 39.641C52.3329 39.7189 52.2732 39.7691 52.2891 39.8462C52.3116 39.955 52.337 40.0811 52.2857 40.2043C52.2436 40.3057 52.3103 40.4193 52.2744 40.5349C52.2429 40.6367 52.2646 40.7539 52.2543 40.8636C52.244 40.9738 52.1789 41.0807 52.241 41.195C52.248 41.2079 52.2333 41.232 52.2302 41.2511C52.1755 41.589 52.0923 41.9252 52.0725 42.2652C52.0348 42.9152 51.8186 43.527 51.7078 44.1606C51.6919 44.2512 51.6874 44.2503 51.7607 44.4041C51.7967 44.2761 51.8259 44.172 51.8633 44.0392C51.9003 44.0675 51.9566 44.0939 51.9539 44.1109C51.9324 44.2451 51.9062 44.3793 51.8669 44.509C51.8535 44.5536 51.7989 44.5857 51.7645 44.622C51.6896 44.5688 51.8465 44.4246 51.6682 44.4291C51.6982 44.5385 51.6586 44.6508 51.739 44.7618C51.8051 44.8527 51.6452 44.9507 51.6691 45.0667C51.6698 45.0702 51.6498 45.0751 51.6463 45.0825C51.5951 45.1894 51.4957 45.2736 51.4544 45.3724C51.4153 45.466 51.4734 45.5994 51.4841 45.7157C51.4864 45.7408 51.4686 45.7676 51.4565 45.8042C51.4262 45.7786 51.4036 45.7595 51.361 45.7235C51.3638 45.9751 51.403 46.229 51.1504 46.391C51.2676 46.5948 51.0761 46.7276 51.0211 46.8938C51.0086 46.9311 50.9144 46.9413 50.8423 46.9703C50.9042 46.9942 50.9546 47.0137 51.0063 47.0336C50.922 47.1574 50.8952 47.2392 50.8728 47.408C50.8681 47.4432 50.8508 47.4791 50.831 47.5094C50.7722 47.6004 50.7434 47.6908 50.724 47.8084C50.7155 47.8612 50.6833 47.9101 50.6623 47.961C50.641 48.012 50.6279 48.0683 50.5976 48.1129C50.5521 48.1795 50.6691 48.286 50.553 48.3203C50.4517 48.3501 50.4979 48.4615 50.4298 48.4985C50.4088 48.5099 50.3763 48.5001 50.2876 48.4998C50.3664 48.5404 50.4085 48.562 50.4547 48.5859C50.4232 48.6034 50.4468 48.5903 50.4706 48.577C50.527 48.7099 50.3806 48.7786 50.3761 48.8809C50.3703 49.0127 50.2452 49.0336 50.1748 49.1318C50.22 49.1633 50.2539 49.1868 50.298 49.2175C50.25 49.3811 50.2514 49.5612 50.1005 49.6955C50.018 49.7689 50.0135 49.9289 50.044 50.1722C49.9983 50.1201 49.9836 50.0943 49.9615 50.0808C49.9402 50.0679 49.9111 50.068 49.8723 50.0595C49.914 50.165 49.9497 50.2553 49.9854 50.3458C49.9076 50.4137 49.829 50.4786 49.8685 50.6044C49.8762 50.6287 49.8453 50.6747 49.8203 50.6981C49.7638 50.7508 49.7501 50.8046 49.7843 50.8747C49.7954 50.8978 49.7997 50.9491 49.7935 50.9515C49.6177 51.0182 49.8151 51.1642 49.729 51.2484C49.6786 51.2976 49.631 51.3496 49.5986 51.3835C49.6258 51.4354 49.6503 51.4767 49.6697 51.52C49.711 51.6116 49.5595 51.6448 49.6069 51.7614C49.637 51.8357 49.5852 51.9504 49.5535 52.0413C49.442 52.3611 49.4971 52.7062 49.3979 53.0271C49.4462 53.2109 49.3679 53.3809 49.3432 53.5572C49.3279 53.6657 49.3313 53.7771 49.3283 53.8873C49.3257 53.9888 49.2681 54.0759 49.3021 54.1939C49.3305 54.2927 49.2487 54.4183 49.2528 54.5307C49.2555 54.6037 49.3172 54.6726 49.2072 54.7122C49.2748 54.781 49.2317 54.8555 49.218 54.9282C49.1834 55.1107 49.191 55.2934 49.2023 55.4776C49.2068 55.5518 49.1993 55.6402 49.1617 55.6998C49.1204 55.765 49.2517 55.8465 49.1308 55.8861C49.1469 55.9966 49.1474 56.1053 49.1152 56.2145C49.0861 56.3131 49.0917 56.4118 49.1006 56.5167C49.1179 56.7195 49.1023 56.9259 49.0892 57.1299C49.0821 57.2403 49.0539 57.3435 49.0685 57.4617C49.0835 57.5836 49.0386 57.7223 48.936 57.8211C48.9055 57.8506 48.878 57.8834 48.8705 57.9477C48.9214 57.9224 48.9722 57.8971 49.023 57.8719C49.0779 58.0154 48.9513 58.0459 48.8638 58.1161C48.9034 58.1856 48.8625 58.2871 48.971 58.3395C48.9912 58.3492 48.9773 58.4437 48.9681 58.497C48.9463 58.6238 48.8904 58.7221 48.7209 58.7144C48.8341 58.7818 48.8743 58.8476 48.7902 58.9416C48.7812 58.9516 48.819 59.0243 48.8597 59.0505C48.731 59.145 48.7778 59.3548 48.5908 59.4343C48.6367 59.4352 48.6828 59.4362 48.7468 59.4375C48.7024 59.5763 48.6887 59.7538 48.597 59.8688C48.4945 59.9971 48.5384 60.1896 48.364 60.2822C48.309 60.2748 48.2367 60.2649 48.1645 60.2551C48.1622 60.2643 48.1599 60.2737 48.1575 60.283C48.2066 60.3038 48.2556 60.3246 48.3221 60.3528C48.2965 60.4778 48.2179 60.5742 48.1446 60.6762C47.935 60.9673 47.6835 61.2143 47.41 61.4465C47.271 61.5644 47.1205 61.6592 46.9756 61.765C46.8385 61.865 46.71 61.9778 46.5685 62.0709C46.2083 62.308 45.8411 62.534 45.4093 62.6219C45.1875 62.7879 44.9155 62.8079 44.6606 62.8727C44.2508 62.9768 43.8307 63.0256 43.4116 63.0769C43.1884 63.1041 42.9649 63.1324 42.7406 63.1476C42.5153 63.1628 42.2872 63.1263 42.0638 63.1884C42.0304 63.1977 41.9884 63.1834 41.9522 63.1731C41.7969 63.1293 41.6427 63.1191 41.4857 63.167C41.4524 63.1772 41.413 63.1674 41.3764 63.1664C41.2661 63.1633 41.1699 63.0898 41.0421 63.1447C40.9617 63.1793 40.8468 63.0766 40.7428 63.1449C40.7314 63.1524 40.7056 63.1388 40.6869 63.1339C40.2982 63.0311 39.8885 63.0564 39.5013 62.9363C39.3796 62.8987 39.2552 62.8594 39.1125 62.8982C39.0411 62.9176 38.9172 62.9025 38.864 62.7964C38.7837 62.8611 38.7014 62.8143 38.6216 62.7977C38.3933 62.75 38.1672 62.6913 37.9377 62.651C37.8208 62.6305 37.7089 62.5484 37.5773 62.6253C37.5085 62.6658 37.4959 62.4755 37.3928 62.5558C37.2452 62.4964 37.085 62.5332 36.9326 62.49C36.7087 62.4264 36.476 62.3394 36.2509 62.3491C36.0215 62.3592 35.8204 62.2864 35.6072 62.2513C35.3774 62.2135 35.1523 62.149 34.9231 62.1063C34.8445 62.0916 34.7591 62.0999 34.6789 62.1115C34.5997 62.1228 34.5611 61.9791 34.4696 62.0633C34.397 62.0155 34.3304 61.9416 34.232 62.011C34.1824 61.9045 34.0899 61.9938 34.0229 61.9654C33.9556 61.9368 33.884 61.9409 33.8173 61.8816C33.7534 61.825 33.6404 61.8156 33.5466 61.8022C33.2071 61.7537 32.8955 61.6115 32.5996 61.4611C32.3118 61.3148 32.0166 61.1743 31.7436 60.9966C31.7057 60.972 31.6543 60.9623 31.6079 60.9567C31.2662 60.9157 30.9822 60.7102 30.6562 60.6242C30.6256 60.6162 30.6065 60.5714 30.5772 60.5505C30.526 60.5141 30.4712 60.4829 30.4177 60.4497C30.3643 60.4165 30.3138 60.3747 30.2558 60.3536C30.2042 60.3349 30.3231 60.2243 30.1913 60.2542C30.1462 60.2645 30.0812 60.2221 30.0357 60.1893C29.97 60.1419 29.9131 60.0822 29.8539 60.0262C29.7285 59.9079 29.6036 59.7889 29.4792 59.6694C29.4257 59.6181 29.4632 59.5925 29.5166 59.569Z" fill="#1A1D27"/>
<path fill-rule="evenodd" clip-rule="evenodd" d="M68.5818 37.98C68.6386 39.054 68.2381 39.4981 67.4572 39.5561C66.4081 39.634 65.3529 39.7176 64.305 39.6789C63.9692 39.6662 63.6476 39.2742 63.3197 39.0559C63.6847 38.6384 64.0261 37.8914 64.4189 37.8636C65.7812 37.7666 67.1613 37.9198 68.5818 37.98Z" fill="#1A1D27"/>
<path fill-rule="evenodd" clip-rule="evenodd" d="M67.6688 30.7259C66.7972 32.776 64.7441 32.6626 63.17 33.356C63.0256 33.4193 62.5472 33.147 62.5553 33.0611C62.595 32.635 62.6427 31.9294 62.8738 31.8473C64.3412 31.3272 65.8572 30.9432 67.3607 30.527C67.4199 30.5106 67.5148 30.6231 67.6688 30.7259Z" fill="#1A1D27"/>
<path fill-rule="evenodd" clip-rule="evenodd" d="M60.6747 23.8688C60.8039 24.2309 60.9163 24.3826 60.8959 24.5139C60.6797 25.8857 60.4904 27.2648 60.1805 28.616C60.0924 28.9994 59.636 29.2986 59.2154 29.5378C59.3535 27.5793 59.2971 25.6301 60.6747 23.8688Z" fill="#1A1D27"/>
<path fill-rule="evenodd" clip-rule="evenodd" d="M15.8883 23.1577C16.6463 22.3946 17.2443 22.3934 17.8114 22.9332C18.5734 23.6585 19.3437 24.3845 20.0185 25.1873C20.2345 25.4446 20.1598 25.9461 20.2182 26.3357C19.6637 26.3455 18.8808 26.5939 18.5965 26.3214C17.6102 25.3767 16.7973 24.251 15.8883 23.1577Z" fill="#1A1D27"/>
<path fill-rule="evenodd" clip-rule="evenodd" d="M11.1247 28.7041C13.2293 27.9739 14.5235 29.5718 16.0941 30.2731C16.2379 30.3376 16.3573 30.8749 16.2882 30.9267C15.9457 31.1832 15.3906 31.6215 15.1747 31.5053C13.8041 30.7669 12.5019 29.9009 11.1841 29.066C11.1321 29.0331 11.1518 28.8872 11.1247 28.7041Z" fill="#1A1D27"/>
<path fill-rule="evenodd" clip-rule="evenodd" d="M10.7373 38.4911C10.9189 38.1523 10.956 37.9672 11.0669 37.8942C12.2289 37.1335 13.3781 36.348 14.5877 35.6707C14.931 35.4786 15.459 35.6161 15.9188 35.7672C14.3744 36.9796 12.9675 38.3299 10.7373 38.4911Z" fill="#1A1D27"/>
</svg>
